<svg width="17" height="15" viewBox="0 0 17 15" fill="none" xmlns="http://www.w3.org/2000/svg">
<path d="M9.91663 12.4583C12.5878 12.4583 13.9237 12.4583 14.7531 11.6282C15.5833 10.7987 15.5833 9.46279 15.5833 6.79167C15.5833 4.12054 15.5833 2.78462 14.7531 1.95517C13.9237 1.125 12.5878 1.125 9.91663 1.125H7.08329C4.41217 1.125 3.07625 1.125 2.24679 1.95517C1.41663 2.78462 1.41663 4.12054 1.41663 6.79167C1.41663 9.46279 1.41663 10.7987 2.24679 11.6282C2.70933 12.0914 3.32913 12.2961 4.24996 12.3861" stroke="#040415" stroke-width="1.41667" stroke-linecap="round" stroke-linejoin="round"/>
<path d="M9.91659 12.4583C9.04109 12.4583 8.07634 12.8125 7.19588 13.2694C5.78063 14.0039 5.07301 14.3716 4.72451 14.1371C4.37601 13.9033 4.44188 13.1773 4.57434 11.7259L4.60409 11.3958" stroke="#040415" stroke-width="1.41667" stroke-linecap="round"/>
</svg>
