<svg width="17" height="14" viewBox="0 0 17 14" fill="none" xmlns="http://www.w3.org/2000/svg">
<path d="M14.1374 1.09785H2.80404C2.02164 1.09785 1.38737 1.73212 1.38737 2.51452V11.0145C1.38737 11.7969 2.02164 12.4312 2.80404 12.4312H14.1374C14.9198 12.4312 15.554 11.7969 15.554 11.0145V2.51452C15.554 1.73212 14.9198 1.09785 14.1374 1.09785Z" stroke="#2EAAED" stroke-width="1.41667" stroke-linecap="round" stroke-linejoin="round"/>
<path d="M8.47071 5.35919C8.28597 5.13524 8.05421 4.95468 7.79188 4.83031C7.52955 4.70594 7.24307 4.6408 6.95276 4.63953C5.83571 4.63953 4.92905 5.59082 4.92905 6.76453C4.92905 7.93823 5.83571 8.88953 6.95276 8.88953C7.55767 8.88953 8.10025 8.61115 8.47071 8.16986M12.0124 6.76453C12.0124 7.93823 11.1057 8.88953 9.98867 8.88953C8.87092 8.88953 7.96496 7.93823 7.96496 6.76453C7.96496 5.59082 8.87092 4.63953 9.98867 4.63953C11.1057 4.63953 12.0124 5.59082 12.0124 6.76453Z" stroke="#2EAAED" stroke-width="1.41667" stroke-linecap="round" stroke-linejoin="round"/>
</svg>
