<svg width="15" height="15" viewBox="0 0 15 15" fill="none" xmlns="http://www.w3.org/2000/svg">
<path d="M8.59369 6.40634C8.01349 5.82638 7.22672 5.50058 6.40636 5.50058C5.586 5.50058 4.79923 5.82638 4.21903 6.40634L2.03099 8.59367C1.45078 9.17388 1.12482 9.96082 1.12482 10.7814C1.12482 11.6019 1.45078 12.3888 2.03099 12.969C2.6112 13.5493 3.39813 13.8752 4.21867 13.8752C5.03922 13.8752 5.82615 13.5493 6.40636 12.969L7.50003 11.8754" stroke="#2EAAED" stroke-width="1.41667" stroke-linecap="round" stroke-linejoin="round"/>
<path d="M6.40637 8.59366C6.98657 9.17362 7.77335 9.49942 8.5937 9.49942C9.41406 9.49942 10.2008 9.17362 10.781 8.59366L12.9691 6.40633C13.5493 5.82612 13.8753 5.03919 13.8753 4.21864C13.8753 3.3981 13.5493 2.61117 12.9691 2.03096C12.3889 1.45075 11.6019 1.12479 10.7814 1.12479C9.96085 1.12479 9.17392 1.45075 8.5937 2.03096L7.50004 3.12462" stroke="#2EAAED" stroke-width="1.41667" stroke-linecap="round" stroke-linejoin="round"/>
</svg>
