<svg width="13" height="13" viewBox="0 0 13 13" fill="none" xmlns="http://www.w3.org/2000/svg">
<path d="M5.65647 3.14L3.68306 0.862081C3.45556 0.599581 3.03847 0.600747 2.77422 0.865581L1.15139 2.49133C0.668389 2.97491 0.530139 3.693 0.809556 4.26875C2.47883 7.72498 5.26625 10.5163 8.72014 12.1904C9.29531 12.4698 10.0128 12.3316 10.4958 11.848L12.1338 10.2071C12.3992 9.94166 12.3998 9.52225 12.135 9.29475L9.84831 7.33183C9.60914 7.1265 9.23756 7.15333 8.99781 7.39366L8.20214 8.1905C8.16141 8.23319 8.10778 8.26133 8.04951 8.2706C7.99124 8.27988 7.93153 8.26977 7.87956 8.24183C6.57898 7.49289 5.50013 6.41263 4.75289 5.11108C4.7249 5.05902 4.71477 4.99921 4.72404 4.94084C4.73332 4.88246 4.76148 4.82874 4.80422 4.78791L5.59756 3.994C5.83789 3.7525 5.86414 3.37975 5.65647 3.14Z" stroke="black" stroke-width="1.16667" stroke-linecap="round" stroke-linejoin="round"/>
</svg>
