<svg width="17" height="16" viewBox="0 0 17 16" fill="none" xmlns="http://www.w3.org/2000/svg">
<path d="M8.5 8.66669C9.60457 8.66669 10.5 7.77126 10.5 6.66669C10.5 5.56212 9.60457 4.66669 8.5 4.66669C7.39543 4.66669 6.5 5.56212 6.5 6.66669C6.5 7.77126 7.39543 8.66669 8.5 8.66669Z" stroke="#fff" stroke-width="1.33333" stroke-linecap="round" stroke-linejoin="round"/>
<path d="M8.50008 1.33334C7.08559 1.33334 5.72904 1.89525 4.72885 2.89544C3.72865 3.89563 3.16675 5.25219 3.16675 6.66668C3.16675 7.92801 3.43475 8.75334 4.16675 9.66668L8.50008 14.6667L12.8334 9.66668C13.5654 8.75334 13.8334 7.92801 13.8334 6.66668C13.8334 5.25219 13.2715 3.89563 12.2713 2.89544C11.2711 1.89525 9.91457 1.33334 8.50008 1.33334Z" stroke="#fff" stroke-width="1.33333" stroke-linecap="round" stroke-linejoin="round"/>
</svg>
