<svg width="13" height="13" viewBox="0 0 13 13" fill="none" xmlns="http://www.w3.org/2000/svg">
<path d="M7.4006 5.53501C6.92278 5.02328 6.27485 4.73581 5.59926 4.73581C4.92368 4.73581 4.27574 5.02328 3.79793 5.53501L1.99601 7.46501C1.51819 7.97696 1.24976 8.67131 1.24976 9.39532C1.24976 10.1193 1.51819 10.8137 1.99601 11.3256C2.47383 11.8376 3.1219 12.1252 3.79764 12.1252C4.47338 12.1252 5.12144 11.8376 5.59926 11.3256L6.49993 10.3606" stroke="black" stroke-width="1.17" stroke-linecap="round" stroke-linejoin="round"/>
<path d="M5.59937 7.465C6.07718 7.97673 6.72511 8.2642 7.4007 8.2642C8.07629 8.2642 8.72422 7.97673 9.20203 7.465L11.0039 5.535C11.4818 5.02305 11.7502 4.3287 11.7502 3.60469C11.7502 2.88068 11.4818 2.18633 11.0039 1.67438C10.5261 1.16243 9.87806 0.874817 9.20232 0.874817C8.52658 0.874817 7.87852 1.16243 7.4007 1.67438L6.50003 2.63938" stroke="black" stroke-width="1.17" stroke-linecap="round" stroke-linejoin="round"/>
</svg>
