<svg width="17" height="15" viewBox="0 0 17 15" fill="none" xmlns="http://www.w3.org/2000/svg">
<path d="M9.91669 12.4583C12.5878 12.4583 13.9237 12.4583 14.7532 11.6282C15.5834 10.7987 15.5834 9.46279 15.5834 6.79167C15.5834 4.12054 15.5834 2.78462 14.7532 1.95517C13.9237 1.125 12.5878 1.125 9.91669 1.125H7.08335C4.41223 1.125 3.07631 1.125 2.24685 1.95517C1.41669 2.78462 1.41669 4.12054 1.41669 6.79167C1.41669 9.46279 1.41669 10.7987 2.24685 11.6282C2.7094 12.0914 3.32919 12.2961 4.25002 12.3861" stroke="#2EAAED" stroke-width="1.41667" stroke-linecap="round" stroke-linejoin="round"/>
<path d="M9.91672 12.4583C9.04122 12.4583 8.07647 12.8125 7.19601 13.2694C5.78076 14.0039 5.07313 14.3716 4.72463 14.1371C4.37613 13.9033 4.44201 13.1773 4.57447 11.7259L4.60422 11.3958" stroke="#2EAAED" stroke-width="1.41667" stroke-linecap="round"/>
</svg>
