<svg width="17" height="17" viewBox="0 0 17 17" fill="none" xmlns="http://www.w3.org/2000/svg">
<path d="M7.47575 4.42L5.07946 1.65396C4.80321 1.33521 4.29675 1.33663 3.97588 1.65821L2.00529 3.63233C1.41879 4.21954 1.25092 5.0915 1.59021 5.79063C3.61719 9.98748 7.00191 13.3769 11.1959 15.4098C11.8943 15.7491 12.7656 15.5812 13.3521 14.994L15.3411 13.0015C15.6634 12.6792 15.6641 12.1699 15.3425 11.8936L12.5658 9.51008C12.2754 9.26075 11.8242 9.29333 11.5331 9.58517L10.5669 10.5528C10.5175 10.6046 10.4523 10.6388 10.3816 10.65C10.3108 10.6613 10.2383 10.649 10.1752 10.6151C8.59594 9.70565 7.28591 8.39391 6.37854 6.81346C6.34456 6.75024 6.33226 6.67762 6.34352 6.60674C6.35478 6.53585 6.38898 6.47062 6.44088 6.42104L7.40421 5.457C7.69604 5.16375 7.72792 4.71113 7.47575 4.42Z" stroke="#2EAAED" stroke-width="1.41667" stroke-linecap="round" stroke-linejoin="round"/>
</svg>
