<svg width="14" height="16" viewBox="0 0 14 16" fill="none" xmlns="http://www.w3.org/2000/svg">
<path d="M6.35267 1.69333C6.5507 1.58336 6.77348 1.52565 7 1.52565C7.22652 1.52565 7.4493 1.58336 7.64733 1.69333L12.6573 4.476C12.7612 4.53376 12.8477 4.61824 12.908 4.72068C12.9682 4.82313 13 4.93982 13 5.05867V10.5487C12.9999 10.7864 12.9363 11.0199 12.8157 11.2248C12.6951 11.4296 12.5219 11.5986 12.314 11.714L7.64733 14.3073C7.4493 14.4173 7.22652 14.475 7 14.475C6.77348 14.475 6.5507 14.4173 6.35267 14.3073L1.686 11.714C1.47824 11.5986 1.30509 11.4298 1.18448 11.225C1.06386 11.0203 1.00018 10.787 1 10.5493V5.05867C0.999995 4.93982 1.03176 4.82313 1.09201 4.72068C1.15226 4.61824 1.2388 4.53376 1.34267 4.476L6.35267 1.69333Z" stroke="white" stroke-width="1.2" stroke-linecap="round" stroke-linejoin="round"/>
<path d="M1 4.66667L7 8M7 8L13 4.66667M7 8V14.3333" stroke="white" stroke-width="1.41667" stroke-linejoin="round"/>
<path d="M4 6.33334L10 3M3 8.21867L5 9.33333" stroke="white" stroke-width="1.41667" stroke-linecap="round" stroke-linejoin="round"/>
</svg>
