<svg width="18" height="18" viewBox="0 0 18 18" fill="none" xmlns="http://www.w3.org/2000/svg">
<path d="M12.4148 3.732L14.268 5.58438M13.6065 2.10013L8.59538 7.11125C8.33645 7.36981 8.15987 7.69924 8.08788 8.058L7.625 10.375L9.942 9.91125C10.3007 9.8395 10.6297 9.66363 10.8887 9.40463L15.8999 4.3935C16.0505 4.24292 16.1699 4.06415 16.2514 3.8674C16.3329 3.67065 16.3748 3.45977 16.3748 3.24681C16.3748 3.03385 16.3329 2.82298 16.2514 2.62623C16.1699 2.42948 16.0505 2.25071 15.8999 2.10013C15.7493 1.94954 15.5705 1.83009 15.3738 1.74859C15.177 1.6671 14.9661 1.62515 14.7532 1.62515C14.5402 1.62515 14.3294 1.6671 14.1326 1.74859C13.9359 1.83009 13.7571 1.94954 13.6065 2.10013V2.10013Z" stroke="black" stroke-width="1.58333" stroke-linecap="round" stroke-linejoin="round"/>
<path d="M14.625 12.125V14.75C14.625 15.2141 14.4406 15.6592 14.1124 15.9874C13.7842 16.3156 13.3391 16.5 12.875 16.5H3.25C2.78587 16.5 2.34075 16.3156 2.01256 15.9874C1.68437 15.6592 1.5 15.2141 1.5 14.75V5.125C1.5 4.66087 1.68437 4.21575 2.01256 3.88756C2.34075 3.55937 2.78587 3.375 3.25 3.375H5.875" stroke="black" stroke-width="1.58333" stroke-linecap="round" stroke-linejoin="round"/>
</svg>
