<svg width="17" height="13" viewBox="0 0 17 13" fill="none" xmlns="http://www.w3.org/2000/svg">
<path d="M1.41667 2.25001C1.41667 1.87429 1.56593 1.51395 1.8316 1.24828C2.09728 0.982599 2.45762 0.833344 2.83334 0.833344H14.1667C14.5424 0.833344 14.9027 0.982599 15.1684 1.24828C15.4341 1.51395 15.5833 1.87429 15.5833 2.25001V10.75C15.5833 11.1257 15.4341 11.4861 15.1684 11.7517C14.9027 12.0174 14.5424 12.1667 14.1667 12.1667H2.83334C2.45762 12.1667 2.09728 12.0174 1.8316 11.7517C1.56593 11.4861 1.41667 11.1257 1.41667 10.75V2.25001Z" stroke="#2EAAED" stroke-width="1.41667" stroke-linecap="round" stroke-linejoin="round"/>
<path d="M1.41667 3.66669L6.72988 7.9174C7.23229 8.31938 7.85657 8.53839 8.5 8.53839C9.14344 8.53839 9.76772 8.31938 10.2701 7.9174L15.5833 3.66669" stroke="#2EAAED" stroke-width="1.41667" stroke-linejoin="round"/>
</svg>
