<svg width="14" height="15" viewBox="0 0 14 15" fill="none" xmlns="http://www.w3.org/2000/svg">
<path d="M6.99996 7.50001C8.84091 7.50001 10.3333 6.00763 10.3333 4.16668C10.3333 2.32573 8.84091 0.833344 6.99996 0.833344C5.15901 0.833344 3.66663 2.32573 3.66663 4.16668C3.66663 6.00763 5.15901 7.50001 6.99996 7.50001Z" stroke="#474847" stroke-opacity="0.6" stroke-width="1.2"/>
<path d="M10.3333 8.83334H10.568C11.0553 8.83348 11.5259 9.01159 11.8912 9.3342C12.2566 9.65681 12.4915 10.1017 12.552 10.5853L12.8126 12.668C12.8361 12.8556 12.8193 13.0461 12.7636 13.2268C12.7078 13.4074 12.6142 13.5741 12.489 13.7159C12.3639 13.8576 12.21 13.9711 12.0377 14.0488C11.8653 14.1265 11.6784 14.1667 11.4893 14.1667H2.51063C2.32155 14.1667 2.13462 14.1265 1.96226 14.0488C1.78989 13.9711 1.63603 13.8576 1.51088 13.7159C1.38573 13.5741 1.29215 13.4074 1.23636 13.2268C1.18057 13.0461 1.16385 12.8556 1.18729 12.668L1.44729 10.5853C1.50776 10.1015 1.7429 9.6564 2.10851 9.33376C2.47412 9.01112 2.94501 8.83316 3.43263 8.83334H3.66663" stroke="#474847" stroke-opacity="0.6" stroke-width="1.2" stroke-linecap="round" stroke-linejoin="round"/>
</svg>

