<svg width="19" height="15" viewBox="0 0 19 15" fill="none" xmlns="http://www.w3.org/2000/svg">
<path d="M15.8333 1.16666H3.16668C2.29223 1.16666 1.58334 1.87554 1.58334 2.74999V12.25C1.58334 13.1244 2.29223 13.8333 3.16668 13.8333H15.8333C16.7078 13.8333 17.4167 13.1244 17.4167 12.25V2.74999C17.4167 1.87554 16.7078 1.16666 15.8333 1.16666Z" stroke="white" stroke-width="1.42" stroke-linecap="round" stroke-linejoin="round"/>
<path d="M9.50002 5.92933C9.29354 5.67903 9.03452 5.47723 8.74133 5.33823C8.44813 5.19922 8.12795 5.12643 7.80348 5.125C6.55502 5.125 5.54169 6.18821 5.54169 7.5C5.54169 8.81179 6.55502 9.875 7.80348 9.875C8.47956 9.875 9.08598 9.56388 9.50002 9.07067M13.4584 7.5C13.4584 8.81179 12.445 9.875 11.1966 9.875C9.94731 9.875 8.93477 8.81179 8.93477 7.5C8.93477 6.18821 9.94731 5.125 11.1966 5.125C12.445 5.125 13.4584 6.18821 13.4584 7.5Z" stroke="white" stroke-width="1.42" stroke-linecap="round" stroke-linejoin="round"/>
</svg>
