<svg width="16" height="17" viewBox="0 0 16 17" fill="none" xmlns="http://www.w3.org/2000/svg">
<path d="M13.3333 3.16666H2.66665C1.93027 3.16666 1.33331 3.76361 1.33331 4.49999V12.5C1.33331 13.2364 1.93027 13.8333 2.66665 13.8333H13.3333C14.0697 13.8333 14.6666 13.2364 14.6666 12.5V4.49999C14.6666 3.76361 14.0697 3.16666 13.3333 3.16666Z" stroke="#fff" stroke-opacity="" stroke-width="1.6" stroke-linecap="round" stroke-linejoin="round"/>
<path d="M7.99996 7.17733C7.82608 6.96656 7.60796 6.79661 7.36106 6.67956C7.11416 6.5625 6.84453 6.5012 6.57129 6.5C5.51996 6.5 4.66663 7.39533 4.66663 8.5C4.66663 9.60467 5.51996 10.5 6.57129 10.5C7.14063 10.5 7.65129 10.238 7.99996 9.82267M11.3333 8.5C11.3333 9.60467 10.48 10.5 9.42863 10.5C8.37663 10.5 7.52396 9.60467 7.52396 8.5C7.52396 7.39533 8.37663 6.5 9.42863 6.5C10.48 6.5 11.3333 7.39533 11.3333 8.5Z" stroke="#fff" stroke-opacity="0.6" stroke-width="1.2" stroke-linecap="round" stroke-linejoin="round"/>
</svg>
