<svg width="12" height="14" viewBox="0 0 12 14" fill="none" xmlns="http://www.w3.org/2000/svg">
<path d="M6 7.67249C6.9665 7.67249 7.75 6.87925 7.75 5.90073C7.75 4.92221 6.9665 4.12897 6 4.12897C5.0335 4.12897 4.25 4.92221 4.25 5.90073C4.25 6.87925 5.0335 7.67249 6 7.67249Z" stroke="#FFC71F" stroke-width="1.3" stroke-linecap="round" stroke-linejoin="round"/>
<path d="M6.00004 1.17603C4.76236 1.17603 3.57538 1.6738 2.70021 2.55986C1.82504 3.44591 1.33337 4.64766 1.33337 5.90072C1.33337 7.01811 1.56787 7.74926 2.20837 8.55837L6.00004 12.9878L9.79171 8.55837C10.4322 7.74926 10.6667 7.01811 10.6667 5.90072C10.6667 4.64766 10.175 3.44591 9.29987 2.55986C8.4247 1.6738 7.23772 1.17603 6.00004 1.17603Z" stroke="#FFC71F" stroke-width="1.3" stroke-linecap="round" stroke-linejoin="round"/>
</svg>

