<svg width="18" height="18" viewBox="0 0 18 18" fill="none" xmlns="http://www.w3.org/2000/svg">
<path d="M9.75 8.99991H16.5M16.5 8.99991L14.0002 5.99991M16.5 8.99991L14.0002 11.9999M10.5 5.24991V3.88041C10.5 3.67294 10.4569 3.46773 10.3736 3.27775C10.2902 3.08776 10.1683 2.91714 10.0157 2.77666C9.86299 2.63618 9.68283 2.5289 9.48658 2.4616C9.29033 2.3943 9.08225 2.36844 8.8755 2.38566L2.8755 2.88516C2.50054 2.91639 2.15101 3.0874 1.89622 3.36427C1.64144 3.64114 1.50002 4.00365 1.5 4.37991V13.6199C1.50002 13.9962 1.64144 14.3587 1.89622 14.6356C2.15101 14.9124 2.50054 15.0834 2.8755 15.1147L8.8755 15.6149C9.08232 15.6321 9.29046 15.6063 9.48676 15.5389C9.68306 15.4716 9.86325 15.3642 10.0159 15.2237C10.1686 15.0831 10.2905 14.9124 10.3738 14.7223C10.4571 14.5322 10.5001 14.3269 10.5 14.1194V12.7499" stroke="#999999" stroke-width="1.5" stroke-linecap="round" stroke-linejoin="round"/>
</svg>
