<svg width="14" height="12" viewBox="0 0 14 12" fill="none" xmlns="http://www.w3.org/2000/svg">
<path d="M11.6666 1.33333H2.33329C1.68896 1.33333 1.16663 1.85566 1.16663 2.49999V9.49999C1.16663 10.1443 1.68896 10.6667 2.33329 10.6667H11.6666C12.311 10.6667 12.8333 10.1443 12.8333 9.49999V2.49999C12.8333 1.85566 12.311 1.33333 11.6666 1.33333Z" stroke="#040415" stroke-width="1.2" stroke-linecap="round" stroke-linejoin="round"/>
<path d="M6.99992 4.84267C6.84777 4.65824 6.65692 4.50954 6.44088 4.40711C6.22484 4.30469 5.98892 4.25105 5.74984 4.25C4.82992 4.25 4.08325 5.03342 4.08325 6C4.08325 6.96658 4.82992 7.75 5.74984 7.75C6.248 7.75 6.69484 7.52075 6.99992 7.15733M9.91659 6C9.91659 6.96658 9.16992 7.75 8.25 7.75C7.3295 7.75 6.58342 6.96658 6.58342 6C6.58342 5.03342 7.3295 4.25 8.25 4.25C9.16992 4.25 9.91659 5.03342 9.91659 6Z" stroke="#040415" stroke-width="1.2" stroke-linecap="round" stroke-linejoin="round"/>
</svg>
