<svg width="50" height="50" viewBox="0 0 19 19" fill="none" xmlns="http://www.w3.org/2000/svg">
<path d="M15.8333 3.16666H3.16668C2.29223 3.16666 1.58334 3.87554 1.58334 4.74999V14.25C1.58334 15.1244 2.29223 15.8333 3.16668 15.8333H15.8333C16.7078 15.8333 17.4167 15.1244 17.4167 14.25V4.74999C17.4167 3.87554 16.7078 3.16666 15.8333 3.16666Z" stroke="white" stroke-width="1.42" stroke-linecap="round" stroke-linejoin="round"/>
<path d="M9.50002 7.92933C9.29354 7.67903 9.03452 7.47723 8.74133 7.33823C8.44813 7.19922 8.12795 7.12643 7.80348 7.125C6.55502 7.125 5.54169 8.18821 5.54169 9.5C5.54169 10.8118 6.55502 11.875 7.80348 11.875C8.47956 11.875 9.08598 11.5639 9.50002 11.0707M13.4584 9.5C13.4584 10.8118 12.445 11.875 11.1966 11.875C9.94731 11.875 8.93477 10.8118 8.93477 9.5C8.93477 8.18821 9.94731 7.125 11.1966 7.125C12.445 7.125 13.4584 8.18821 13.4584 9.5Z" stroke="white" stroke-width="1.42" stroke-linecap="round" stroke-linejoin="round"/>
</svg>
