<svg width="14" height="15" viewBox="0 0 14 15" fill="none" xmlns="http://www.w3.org/2000/svg">
<path d="M7.00002 7.50001C8.84097 7.50001 10.3334 6.00763 10.3334 4.16668C10.3334 2.32573 8.84097 0.833344 7.00002 0.833344C5.15907 0.833344 3.66669 2.32573 3.66669 4.16668C3.66669 6.00763 5.15907 7.50001 7.00002 7.50001Z" stroke="white" stroke-width="1.41667"/>
<path d="M10.3334 8.83334H10.568C11.0554 8.83348 11.526 9.01159 11.8913 9.3342C12.2566 9.65681 12.4916 10.1017 12.552 10.5853L12.8127 12.668C12.8361 12.8556 12.8194 13.0461 12.7636 13.2268C12.7078 13.4074 12.6143 13.5741 12.4891 13.7159C12.364 13.8576 12.2101 13.9711 12.0377 14.0488C11.8654 14.1265 11.6784 14.1667 11.4894 14.1667H2.51069C2.32161 14.1667 2.13468 14.1265 1.96232 14.0488C1.78995 13.9711 1.63609 13.8576 1.51094 13.7159C1.38579 13.5741 1.29221 13.4074 1.23642 13.2268C1.18063 13.0461 1.16391 12.8556 1.18735 12.668L1.44735 10.5853C1.50782 10.1015 1.74296 9.6564 2.10857 9.33376C2.47419 9.01112 2.94507 8.83316 3.43269 8.83334H3.66669" stroke="white" stroke-width="1.41667" stroke-linecap="round" stroke-linejoin="round"/>
</svg>
